<svg xmlns="http://www.w3.org/2000/svg" viewBox="0 0 240 240" role="img" aria-label="집중하는 차나핑 학습 코치">
  <rect width="240" height="240" rx="44" fill="#e7f7f3"/>
  <path d="M32 208c8-47 41-70 88-70s80 23 88 70" fill="#b6d5c5"/>
  <ellipse cx="120" cy="111" rx="61" ry="57" fill="#fff4dc" stroke="#276f64" stroke-width="5"/>
  <path d="M61 111C42 98 47 66 70 62c12-2 24 6 27 17-19 3-28 20-20 36z" fill="#1f9d8b"/>
  <path d="M84 77c8-28 45-37 69-18 14 11 16 33 5 49-10-15-29-19-45-11-12 6-19 16-20 30-16-10-19-32-9-50z" fill="#1f9d8b"/>
  <path d="M156 76c22 3 34 26 25 46-5 10-13 16-24 19-2-17-12-28-29-34 17-7 27-17 28-31z" fill="#167a70"/>
  <path d="M75 112c9-7 20-7 30 0M135 112c10-7 21-7 30 0" fill="none" stroke="#276f64" stroke-width="5" stroke-linecap="round"/>
  <circle cx="94" cy="121" r="5" fill="#276f64"/><circle cx="148" cy="121" r="5" fill="#276f64"/>
  <path d="M106 146c9 5 19 5 28 0" fill="none" stroke="#c26b72" stroke-width="4" stroke-linecap="round"/>
  <path d="M68 180c8-18 25-25 42-17l-7 32H57zM172 180c-8-18-25-25-42-17l7 32h46z" fill="#91c8bb"/>
  <path d="M90 173c15 9 45 9 60 0l10 36H80z" fill="#1d685f"/>
  <path d="M110 176l10 14 10-14" fill="#f9d8b8" stroke="#155149" stroke-width="3"/>
  <path d="M190 94c16 4 25 15 27 30-11-7-20-8-30-4" fill="none" stroke="#276f64" stroke-width="5" stroke-linecap="round"/>
  <path d="M202 130c8-1 14 3 18 10" fill="none" stroke="#276f64" stroke-width="4" stroke-linecap="round"/>
</svg>
